<svg xmlns="http://www.w3.org/2000/svg" width="41" height="54" viewBox="0 0 41 54">
  <g id="invalid" transform="translate(3699 -5)">
    <rect id="Rectangle_31" data-name="Rectangle 31" width="41" height="54" rx="3" transform="translate(-3699 5)" fill="#ffd9e0"/>
    <rect id="Rectangle_33" data-name="Rectangle 33" width="31" height="5" rx="2.5" transform="translate(-3694 36)" fill="rgba(255,0,0,0.2)"/>
    <rect id="Rectangle_33-2" data-name="Rectangle 33" width="31" height="5" rx="2.5" transform="translate(-3694 45)" fill="rgba(255,0,0,0.2)"/>
    <g id="Group_25" data-name="Group 25" transform="translate(-2 -1)">
      <path id="Union_2" data-name="Union 2" d="M9.877,11.7,6.041,7.868,2.205,11.7A1.292,1.292,0,0,1,.378,9.877L4.214,6.041.378,2.205A1.292,1.292,0,0,1,2.205.378L6.041,4.214,9.877.378A1.292,1.292,0,0,1,11.7,2.205L7.868,6.041,11.7,9.877A1.292,1.292,0,0,1,9.877,11.7Z" transform="translate(-3682.515 17.935)" fill="rgba(255,0,0,0.2)"/>
      <g id="Ellipse_9" data-name="Ellipse 9" transform="translate(-3688 13)" fill="none" stroke="#ffaeb3" stroke-width="4">
        <circle cx="11" cy="11" r="11" stroke="none"/>
        <circle cx="11" cy="11" r="9" fill="none"/>
      </g>
    </g>
  </g>
</svg>
