<svg xmlns="http://www.w3.org/2000/svg" xmlns:xlink="http://www.w3.org/1999/xlink" width="183.02" height="52.965" viewBox="0 0 183.02 52.965">
  <defs>
    <filter id="Path_5" x="0" y="0" width="183.02" height="52.965" filterUnits="userSpaceOnUse">
      <feOffset dy="3" input="SourceAlpha"/>
      <feGaussianBlur stdDeviation="3" result="blur"/>
      <feFlood flood-opacity="0.161"/>
      <feComposite operator="in" in2="blur"/>
      <feComposite in="SourceGraphic"/>
    </filter>
  </defs>
  <g transform="matrix(1, 0, 0, 1, 0, 0)" filter="url(#Path_5)">
    <path id="Path_5-2" data-name="Path 5" d="M11.1.185A8.642,8.642,0,0,1,6.494-1.073,8.659,8.659,0,0,1,3.256-4.718,12.561,12.561,0,0,1,2.072-10.36,22.889,22.889,0,0,1,4.477-20.776a18.864,18.864,0,0,1,7.1-7.7,21.045,21.045,0,0,1,11.285-2.9,27.658,27.658,0,0,1,3.645.259,19.936,19.936,0,0,1,3.533.777,1.37,1.37,0,0,1,1.036,1.48,2.761,2.761,0,0,1-.722,1.813,2.155,2.155,0,0,1-1.684.851,1.972,1.972,0,0,1-.444-.037q-1.924-.444-3.293-.647a19.628,19.628,0,0,0-2.886-.2,13.712,13.712,0,0,0-7.992,2.275A13.909,13.909,0,0,0,9.139-18.8,19.974,19.974,0,0,0,7.511-10.73a8.223,8.223,0,0,0,1.24,4.866,3.817,3.817,0,0,0,3.237,1.72,5.231,5.231,0,0,0,3.959-1.85,17.114,17.114,0,0,0,3.108-5.994A88.806,88.806,0,0,0,21.83-23.236a1.966,1.966,0,0,1,.888-1.406,3.656,3.656,0,0,1,1.776-.37q2.627,0,2.627,1.7a3.161,3.161,0,0,1-.111.74q-.962,3.589-1.757,7.936a39.969,39.969,0,0,0-.8,6.6,5.468,5.468,0,0,0,.592,2.9,2.015,2.015,0,0,0,1.813.906,3.732,3.732,0,0,0,2.257-.8,17.908,17.908,0,0,0,2.7-2.719,1.3,1.3,0,0,1,1-.518.855.855,0,0,1,.758.444,2.3,2.3,0,0,1,.278,1.221,3.492,3.492,0,0,1-.7,2.294A16.794,16.794,0,0,1,29.6-.962,7.559,7.559,0,0,1,25.345.185a5.849,5.849,0,0,1-4.181-1.5,7.03,7.03,0,0,1-2-4.237Q16.428.185,11.1.185ZM50.542-11.359a.807.807,0,0,1,.74.481,2.559,2.559,0,0,1,.259,1.221,3.158,3.158,0,0,1-.259,1.425,1.365,1.365,0,0,1-.814.684,16.845,16.845,0,0,1-4.884.888A9.589,9.589,0,0,1,42.791-1.7,6.556,6.556,0,0,1,38.258.185a5.862,5.862,0,0,1-5.439-2.849q-1.7-2.849-1.7-8.251A50.451,50.451,0,0,1,32.3-21.294a32.437,32.437,0,0,1,3.459-9.546q2.276-3.94,5.42-3.941a3.2,3.2,0,0,1,2.738,1.462,6.413,6.413,0,0,1,1.036,3.792A16.76,16.76,0,0,1,43.808-23.5,23.665,23.665,0,0,1,40-17.205a5.574,5.574,0,0,1,4.033,2.054,8.439,8.439,0,0,1,1.85,4.607,22.425,22.425,0,0,0,4.144-.74A1.64,1.64,0,0,1,50.542-11.359ZM40.33-31.117q-.74,0-1.61,2.2a35.41,35.41,0,0,0-1.61,5.976A75.213,75.213,0,0,0,36-14.689q2.442-4.477,3.9-7.9a15.789,15.789,0,0,0,1.461-6.087,4.652,4.652,0,0,0-.278-1.813Q40.811-31.117,40.33-31.117ZM38.406-3.737A2.7,2.7,0,0,0,40.441-4.7a5.249,5.249,0,0,0,1.184-2.775,5.108,5.108,0,0,1-1.757-2.035,6.024,6.024,0,0,1-.611-2.664,9.059,9.059,0,0,1,.148-1.406h-.111a2.992,2.992,0,0,0-2.535,1.5,7.039,7.039,0,0,0-1.018,4.015,5.488,5.488,0,0,0,.8,3.219A2.281,2.281,0,0,0,38.406-3.737Zm28.823-7.622a.807.807,0,0,1,.74.481,2.559,2.559,0,0,1,.259,1.221q0,1.776-1.073,2.109a16.845,16.845,0,0,1-4.884.888A9.235,9.235,0,0,1,59.5-1.684,6.827,6.827,0,0,1,54.8.185,6.566,6.566,0,0,1,51-.888a6.815,6.815,0,0,1-2.387-2.849A9.124,9.124,0,0,1,47.8-7.585,11.3,11.3,0,0,1,48.877-12.6a8.429,8.429,0,0,1,2.96-3.441,7.454,7.454,0,0,1,4.181-1.239,5.762,5.762,0,0,1,4.532,1.942,8.32,8.32,0,0,1,2.017,4.792,22.425,22.425,0,0,0,4.144-.74A2.174,2.174,0,0,1,67.229-11.359ZM55.093-3.737A2.683,2.683,0,0,0,57.146-4.7a5.34,5.34,0,0,0,1.166-2.775,5.108,5.108,0,0,1-1.757-2.035,6.024,6.024,0,0,1-.611-2.664,6.412,6.412,0,0,1,.111-1.184H55.87a2.9,2.9,0,0,0-2.461,1.425,7.022,7.022,0,0,0-.98,4.015,5.162,5.162,0,0,0,.8,3.108A2.3,2.3,0,0,0,55.093-3.737ZM68.82.185A3.18,3.18,0,0,1,66.1-1.351,6.609,6.609,0,0,1,65.046-5.18a32.309,32.309,0,0,1,.37-5.088,31.937,31.937,0,0,1,1.221-4.9,3.1,3.1,0,0,1,1.036-1.591,3.647,3.647,0,0,1,2.109-.481,1.826,1.826,0,0,1,1.129.259.948.948,0,0,1,.314.777,15.36,15.36,0,0,1-.407,2q-.37,1.369-.592,2.479a35,35,0,0,0-.74,5.18,2.308,2.308,0,0,0,.185,1.091.635.635,0,0,0,.592.314q.555,0,1.387-1.11A16.313,16.313,0,0,0,73.426-9.62a45,45,0,0,0,1.832-5.55,2.91,2.91,0,0,1,.907-1.591A2.926,2.926,0,0,1,78-17.242a2.444,2.444,0,0,1,1.184.2.816.816,0,0,1,.333.759,35.843,35.843,0,0,1-.925,5.069,41.015,41.015,0,0,0-1.036,5.846,1.767,1.767,0,0,0,.3,1.092.931.931,0,0,0,.777.388,2.891,2.891,0,0,0,1.757-.906A29.7,29.7,0,0,0,83.1-7.733a1.3,1.3,0,0,1,1-.518.855.855,0,0,1,.758.444,2.3,2.3,0,0,1,.278,1.221,3.4,3.4,0,0,1-.7,2.294,16.375,16.375,0,0,1-3.423,3.219A7.177,7.177,0,0,1,76.849.185a2.833,2.833,0,0,1-2.608-1.369,7.428,7.428,0,0,1-.832-3.848,8.666,8.666,0,0,1-1.887,3.867A3.677,3.677,0,0,1,68.82.185ZM88.245-13.727q-.074,1.85-.074,2.886a24.136,24.136,0,0,0,.278,4.162,4.049,4.049,0,0,0,.925,2.146,2.425,2.425,0,0,0,1.795.648,3.506,3.506,0,0,0,1.406-.37,5.873,5.873,0,0,0,1.48-.962,1.221,1.221,0,0,1,.814-.37.82.82,0,0,1,.722.5,2.441,2.441,0,0,1,.277,1.2,3.528,3.528,0,0,1-.277,1.369,2.754,2.754,0,0,1-.833,1.11A6.665,6.665,0,0,1,90.391.185a5.464,5.464,0,0,1-5.143-2.942,15.8,15.8,0,0,1-1.628-7.678q0-1.628.111-3.293H82.288a2.075,2.075,0,0,1-1.5-.407,1.827,1.827,0,0,1-.388-1.3q0-2.072,1.665-2.072h2.109A36.008,36.008,0,0,1,86.1-24.938,16.779,16.779,0,0,1,89.226-30.3a5.329,5.329,0,0,1,3.94-2,2.768,2.768,0,0,1,2.442,1.369,6.2,6.2,0,0,1,.888,3.441,12.962,12.962,0,0,1-4.81,9.99H95.83a1.171,1.171,0,0,1,.851.259,1.362,1.362,0,0,1,.259.962q0,2.553-4.181,2.553Zm3.922-15.022q-.555,0-1.24,1.387a19.74,19.74,0,0,0-1.295,3.848,51.579,51.579,0,0,0-1.018,5.457,12.638,12.638,0,0,0,3.274-4.236,10.274,10.274,0,0,0,1.092-4.274Q92.981-28.749,92.167-28.749ZM114.034.185a2.649,2.649,0,0,1-1.961-.611,3.365,3.365,0,0,1-.592-2.312,23.026,23.026,0,0,1,.241-2.942q.24-1.794.8-4.94.962-5.809,1.517-10.064a36.956,36.956,0,0,0,.333-4.44q0-1.665-1.221-1.665a4.207,4.207,0,0,0-2.312.98,15.317,15.317,0,0,0-2.979,3.127,1.446,1.446,0,0,1-1.147.7,1.13,1.13,0,0,1-.907-.5,1.79,1.79,0,0,1-.389-1.128,3.265,3.265,0,0,1,.241-1.2,6.7,6.7,0,0,1,.8-1.387,13.974,13.974,0,0,1,3.959-3.83,8.241,8.241,0,0,1,4.366-1.351,3.861,3.861,0,0,1,3.127,1.3,5.715,5.715,0,0,1,1.091,3.774,17.622,17.622,0,0,1-.185,2.35q-.185,1.351-.333,2.2t-.222,1.184q2.109-6.031,4.736-8.417a8.407,8.407,0,0,1,5.772-2.387,4.63,4.63,0,0,1,3.792,1.7,7.425,7.425,0,0,1,1.388,4.81,17.334,17.334,0,0,1-.333,3.034q1.85-5.106,4.329-7.326a8.292,8.292,0,0,1,5.7-2.22,4.886,4.886,0,0,1,3.977,1.665A7.079,7.079,0,0,1,149-25.049a20.119,20.119,0,0,1-.481,3.959l-2.257,10.582a16.588,16.588,0,0,0-.37,3.182A3.319,3.319,0,0,0,146.613-5a2.616,2.616,0,0,0,2.016.777,4.124,4.124,0,0,0,2.387-.814,15.656,15.656,0,0,0,2.757-2.7,1.3,1.3,0,0,1,1-.518.855.855,0,0,1,.758.444,2.3,2.3,0,0,1,.278,1.221,3.492,3.492,0,0,1-.7,2.294,14.3,14.3,0,0,1-3.811,3.4A7.9,7.9,0,0,1,147.334.185a6.464,6.464,0,0,1-4.921-1.869A6.977,6.977,0,0,1,140.637-6.7a32.835,32.835,0,0,1,.888-6.327l1.48-6.771q.074-.333.259-1.184t.3-1.609a10.34,10.34,0,0,0,.111-1.5,3.153,3.153,0,0,0-.5-1.942,1.693,1.693,0,0,0-1.424-.647q-1.739,0-3.645,2.238a23.012,23.012,0,0,0-3.626,7.419,74.089,74.089,0,0,0-2.794,13.468,5.929,5.929,0,0,1-.906,2.979,2.608,2.608,0,0,1-2.09.759,2.458,2.458,0,0,1-1.832-.592,3.223,3.223,0,0,1-.574-2.22,25.532,25.532,0,0,1,.407-3.978q.407-2.461,1.036-5.791a83.133,83.133,0,0,0,1.7-11.544,3.281,3.281,0,0,0-.536-2.072,1.943,1.943,0,0,0-1.609-.666,5.347,5.347,0,0,0-3.737,2.053q-1.924,2.054-3.756,7.289a75.415,75.415,0,0,0-3.052,14.153,6.636,6.636,0,0,1-.759,2.627A2.19,2.19,0,0,1,114.034.185Zm52.022-7.326a.855.855,0,0,1,.758.444,2.3,2.3,0,0,1,.277,1.221,4.1,4.1,0,0,1-.629,2.294A7.2,7.2,0,0,1,163.743-.7a8.5,8.5,0,0,1-4.014.888,7.123,7.123,0,0,1-5.513-2.128A8.158,8.158,0,0,1,152.255-7.7a10.706,10.706,0,0,1,1.073-4.755,8.786,8.786,0,0,1,2.979-3.5,7.491,7.491,0,0,1,4.311-1.3,4.689,4.689,0,0,1,3.441,1.276,4.637,4.637,0,0,1,1.295,3.459,5.982,5.982,0,0,1-1.831,4.385q-1.831,1.832-6.234,2.9a3.109,3.109,0,0,0,3,1.7,4.182,4.182,0,0,0,2.5-.7,12.083,12.083,0,0,0,2.275-2.368A1.273,1.273,0,0,1,166.056-7.141Zm-6.068-6.475a2.711,2.711,0,0,0-2.312,1.591,7.416,7.416,0,0,0-.943,3.848V-8.1a8.408,8.408,0,0,0,3.441-1.554,3.054,3.054,0,0,0,1.258-2.4,1.609,1.609,0,0,0-.389-1.129A1.357,1.357,0,0,0,159.988-13.616Z" transform="translate(6.93 40.78)" fill="#fff" opacity="0.68"/>
  </g>
</svg>
