<svg xmlns="http://www.w3.org/2000/svg" width="179" height="225" viewBox="0 0 179 225">
  <g id="doc" transform="translate(-613 -360)">
    <g id="Path_1" data-name="Path 1" transform="translate(613 360)" fill="#d9e4e8">
      <path d="M 146 219 L 33 219 C 18.11214256286621 219 6 206.8878631591797 6 192 L 6 33 C 6 18.11214256286621 18.11214256286621 6 33 6 L 125.5147171020508 6 L 173 53.48528671264648 L 173 192 C 173 206.8878631591797 160.8878631591797 219 146 219 Z" stroke="none"/>
      <path d="M 33 12 C 21.42054748535156 12 12 21.42054748535156 12 33 L 12 192 C 12 203.5794525146484 21.42054748535156 213 33 213 L 146 213 C 157.5794525146484 213 167 203.5794525146484 167 192 L 167 55.9705810546875 L 123.0294189453125 12 L 33 12 M 33 0 L 128 0 C 141.5092468261719 13.50924682617188 167.1561279296875 39.1561279296875 179 51 L 179 192 C 179 210.2254180908203 164.2254180908203 225 146 225 L 33 225 C 14.77458190917969 225 0 210.2254180908203 0 192 L 0 33 C 0 14.77458190917969 14.77458190917969 0 33 0 Z" stroke="none" fill="#141f38"/>
    </g>
    <line id="Line_1" data-name="Line 1" x2="65" transform="translate(654.5 492.5)" fill="none" stroke="#141f38" stroke-linecap="round" stroke-width="12"/>
    <line id="Line_2" data-name="Line 2" x2="104" transform="translate(654.5 514.5)" fill="none" stroke="#141f38" stroke-linecap="round" stroke-width="12"/>
    <line id="Line_3" data-name="Line 3" x2="104" transform="translate(654.5 536.5)" fill="none" stroke="#141f38" stroke-linecap="round" stroke-width="12"/>
  </g>
</svg>
