<svg id="Layer_1" data-name="Layer 1" xmlns="http://www.w3.org/2000/svg" viewBox="0 0 200 201"><defs><style>.cls-1,.cls-2{fill:#fff;}.cls-1{opacity:0.1;}</style></defs><title>round-progress</title><path class="cls-1" d="M100,199A100,100,0,1,1,200,99,100.11,100.11,0,0,1,100,199Zm0-181.82A81.82,81.82,0,1,0,181.82,99,81.92,81.92,0,0,0,100,17.18Z" transform="translate(0 1)"/><path class="cls-2" d="M100,200A100,100,0,0,1,100,0a9.09,9.09,0,1,1,0,18.18A81.82,81.82,0,1,0,181.82,100,9.09,9.09,0,1,1,200,100,100.11,100.11,0,0,1,100,200Z" transform="translate(0 1)"/></svg>